<svg xmlns="http://www.w3.org/2000/svg" xmlns:xlink="http://www.w3.org/1999/xlink" version="1.1" x="0px" y="0px" viewBox="0 0 100 125" enable-background="new 0 0 100 100" xml:space="preserve"><path fill-rule="evenodd" clip-rule="evenodd" fill="#aa9630" d="M17.074,46.648c-2.802-2.744-3.386-5.911-1.751-9.502  c1.664-3.678,4.773-5.518,9.327-5.518c0.525-4.232,3.05-7.035,7.575-8.407c4.408-1.313,7.969-0.613,10.684,2.102  c2.102-4.204,5.342-6.276,9.721-6.218c4.174,0.059,7.429,1.883,9.764,5.474c3.212-2.014,6.35-2.248,9.414-0.7  c2.628,1.313,4.263,3.255,4.906,5.824c4.379,0.466,8.246,1.897,11.604,4.291c3.327,2.365,4.743,4.656,4.247,6.875  c-0.468,2.131-2.219,3.664-5.255,4.598c-2.861,0.876-6.555,1.139-11.079,0.788v0.263c0.206,0.847,0.307,1.795,0.307,2.846  c0,0.583-0.028,1.154-0.087,1.708c1.197,0.555,2.453,1.285,3.766,2.189c2.423,1.635,5.05,3.897,7.883,6.787  c0.699,0.73,1.124,1.576,1.269,2.54c0.205,1.225-0.131,2.277-1.007,3.152c-0.905,0.905-1.971,1.27-3.197,1.096  c-1.021-0.146-1.868-0.57-2.538-1.271c-2.54-2.628-4.89-4.67-7.051-6.131c-0.847-0.582-1.636-1.063-2.363-1.443  c-0.089,0.059-0.161,0.13-0.22,0.219c-1.343,1.401-2.846,2.423-4.511,3.065c1.021,0.525,2.087,1.167,3.197,1.927  c2.423,1.635,5.05,3.896,7.882,6.787c0.7,0.729,1.124,1.577,1.27,2.539c0.205,1.227-0.132,2.277-1.008,3.153  c-0.904,0.904-1.97,1.269-3.196,1.095c-1.021-0.146-1.868-0.57-2.539-1.271c-2.539-2.626-4.89-4.671-7.05-6.13  c-2.073-1.432-3.884-2.292-5.43-2.584h-0.044c-1.606,1.432-3.722,2.146-6.35,2.146c-2.568,0-4.816-0.935-6.743-2.804  c-1.927,2.979-4.627,4.466-8.101,4.466c-2.043,0-3.751-0.319-5.123-0.963c-1.401,2.045-2.774,3.796-4.117,5.255  c-2.248,2.424-4.378,4.131-6.393,5.123c-1.022,0.497-1.825,0.717-2.409,0.656c-0.905-0.087-1.839-0.758-2.802-2.013  c-0.963-1.284-1.299-2.276-1.007-2.978c0.176-0.409,0.774-0.861,1.795-1.358h0.044c1.431-0.699,2.992-1.971,4.686-3.81  c1.752-1.926,3.561-4.422,5.43-7.487c0.087-0.146,0.189-0.276,0.306-0.395c-0.087-0.612-0.131-1.255-0.131-1.926V60.31  c-1.518,1.519-3.27,2.423-5.254,2.715c-2.511,2.277-4.846,4.103-7.006,5.475c-2.774,1.751-5.269,2.846-7.488,3.283  c-1.109,0.233-1.926,0.233-2.452,0c-0.875-0.321-1.62-1.212-2.233-2.671c-0.584-1.488-0.643-2.524-0.176-3.109  c0.263-0.379,0.949-0.671,2.058-0.876h0.044c1.576-0.291,3.416-1.108,5.518-2.451c0.963-0.614,1.985-1.344,3.065-2.189  c-1.46-1.606-2.189-3.956-2.189-7.051c0-2.598,0.905-4.831,2.715-6.699L17.074,46.648z M81.18,36.489  c0-1.605-0.788-2.408-2.365-2.408c-1.576,0-2.364,0.803-2.364,2.408s0.788,2.408,2.364,2.408  C80.392,38.897,81.18,38.095,81.18,36.489z"/></svg>