<svg xmlns="http://www.w3.org/2000/svg" viewBox="0 0 120 150" x="0px" y="0px"><title>Sleep</title><path fill="#834ca7" d="M94.47,20.13l-6,6.54L71.31,46.41v8.4h37V45l-15.82.08q-3.38,0-5.44.17,2-2,6.12-6.71L110,19.24V10H70V20.42H88.35Q89.54,20.42,94.47,20.13Z"/><path d="M52.35,63.79,47.83,68.7,35,83.51v6.3H62.77V82.43l-11.87.06q-2.53,0-4.08.13,1.49-1.49,4.59-5L64,63.13V56.2H34V64H47.77Q48.65,64,52.35,63.79Z"/><path d="M16,98.82q.38,0,2-.1l-2,2.13-5.57,6.42V110h12v-3.2l-5.14,0q-1.1,0-1.77.05.64-.64,2-2.18L23,98.44v-3H10v3.39Z"/></svg>