<svg xmlns="http://www.w3.org/2000/svg" xmlns:xlink="http://www.w3.org/1999/xlink" xmlns:a="http://ns.adobe.com/AdobeSVGViewerExtensions/3.0/" version="1.1" x="0px" y="0px" viewBox="-11.357 -1.141 100 125" enable-background="new -11.357 -1.141 100 100" xml:space="preserve"><path fill="#408419" d="M76.271,27.651c-5.03-7.057-11.592-10.635-19.503-10.635c-5.061,0-10.623,1.434-16.983,4.38  c-0.347,0.011-0.684,0.017-1.009,0.017c-4.431,0-7.361-1.014-9.501-3.288c-1.154-1.226-3.22-4.62-4.086-13.579l-0.115-1.185  L24.33,2.432C23.094,0.887,21.122,0,18.92,0h0c-1.878,0-3.864,0.625-5.306,1.759c-1.814,1.428-2.971,3.486-2.971,5.797v0.216  l0.18,0.214c0.06,0.544,0.19,1.143,0.246,1.782c0.458,5.233,1.191,13.14,6.779,19.076c3.864,4.105,8.428,6.074,12.553,7.06  c-0.623,1.666-0.943,3.737-0.496,6.424c1.901,11.411-3.512,13.32-5.292,13.948c-3.38,1.192-5.903,3.12-7.383,4.473  c-2.377,0.06-5.786,0.792-9.119,3.773c-6.814,6.1-8.313,22.169-8.089,27.333l0.046,1.07l0.576,0.903  c1.592,2.502,4.274,3.996,7.174,3.996c2.858,0,5.399-1.462,6.798-3.909l0.571-1l-0.048-1.151c-0.216-5.184,1.87-13.876,2.966-15.67  c0.483-0.498,0.891-0.833,1.229-1.061c4.951,4.06,11.414,6.115,19.249,6.115c3.863,0,8.087-0.517,12.558-1.537  C61.21,77.316,69.75,71.186,74.57,62.792C81.599,50.559,82.299,36.108,76.271,27.651z M71.102,60.8  c-4.289,7.469-11.777,12.844-20.85,14.912c-4.313,0.984-8.193,1.437-11.668,1.437c-8.249,0-14.212-2.553-18.252-6.606  c-0.505,0.084-2.467-0.014-5.234,2.91c-1.75,1.848-4.205,12.479-3.955,18.479c-0.484,0.847-1.217,1.401-2.044,1.68  c-0.12-7.604,2.237-19.096,4.547-21.534c3-3.169,5.389-3.41,6.289-3.501l1.017-0.169l0.796,0.724  c3.98,3.994,9.645,6.019,16.836,6.019c3.417,0,7.192-0.467,11.223-1.387c6.068-1.383,14.271-5.097,20.436-14.803  c-4.189,0.353-11.227,0.836-18.311,0.836c-8.516,0-14.934-0.688-19.119-2.05c-1.573,1.885-3.652,3.29-6.201,4.188  c-3.812,1.345-6.236,4.149-6.259,4.178l-0.682,0.814l-1.188-0.124c-0.185-0.021-0.502-0.059-0.92-0.059  c-1.339,0-3.371,0.391-5.45,2.25C7.928,72.738,5.441,86.855,5.755,93.3c-0.671-0.357-1.278-0.897-1.737-1.619  c-0.25-5.75,1.694-19.643,6.761-24.178c2.653-2.373,5.256-2.76,6.784-2.76c0.617,0,1.058,0.063,1.257,0.084  c0,0,2.692-3.215,7.127-4.779c7.436-2.621,9.345-9.783,7.913-18.377c-0.75-4.5,1.391-6.101,2.983-8.839  c-5.645-0.439-11.522-1.925-16.044-6.729c-5.287-5.617-5.342-13.921-5.842-18.546C14.957,5.222,17.067,4,18.919,4  c0.926,0,1.787,0.306,2.287,0.931c0.375,3.875,1.412,11.958,5.155,15.935c3.182,3.38,7.364,4.546,12.414,4.546  c0.647,0,1.309-0.019,1.984-0.055c5.991-2.858,11.307-4.341,16.009-4.341c6.557,0,11.919,2.887,16.245,8.957  C77.947,36.895,77.549,49.579,71.102,60.8z"/></svg>